<?xml version="1.0" encoding="UTF-8" standalone="no"?>
<!-- Created with Inkscape (http://www.inkscape.org/) -->

<svg
   xmlns:dc="http://purl.org/dc/elements/1.1/"
   xmlns:cc="http://creativecommons.org/ns#"
   xmlns:rdf="http://www.w3.org/1999/02/22-rdf-syntax-ns#"
   xmlns:svg="http://www.w3.org/2000/svg"
   xmlns="http://www.w3.org/2000/svg"
   xmlns:sodipodi="http://sodipodi.sourceforge.net/DTD/sodipodi-0.dtd"
   xmlns:inkscape="http://www.inkscape.org/namespaces/inkscape"
   id="svg4148"
   version="1.1"
   inkscape:version="0.92.1 r15371"
   width="265mm"
   height="62mm"
   viewBox="0 0 938.97637 219.68504"
   sodipodi:docname="Logo.Ryadel.2017.Scritta.Black.Tracciato.svg">
  <metadata
     id="metadata4154">
    <rdf:RDF>
      <cc:Work
         rdf:about="">
        <dc:format>image/svg+xml</dc:format>
        <dc:type
           rdf:resource="http://purl.org/dc/dcmitype/StillImage" />
        <dc:title></dc:title>
      </cc:Work>
    </rdf:RDF>
  </metadata>
  <defs
     id="defs4152" />
  <sodipodi:namedview
     pagecolor="#032a4b"
     bordercolor="#666666"
     borderopacity="1"
     objecttolerance="10"
     gridtolerance="10"
     guidetolerance="10"
     inkscape:pageopacity="0"
     inkscape:pageshadow="2"
     inkscape:window-width="1920"
     inkscape:window-height="1027"
     id="namedview4150"
     showgrid="false"
     inkscape:zoom="0.6038698"
     inkscape:cx="328.11966"
     inkscape:cy="127.93742"
     inkscape:window-x="-8"
     inkscape:window-y="-4"
     inkscape:window-maximized="1"
     inkscape:current-layer="text4141"
     units="mm"
     showguides="false"
     fit-margin-top="5"
     fit-margin-right="5"
     fit-margin-left="5"
     fit-margin-bottom="5"
     inkscape:pagecheckerboard="true">
    <inkscape:grid
       type="xygrid"
       id="grid4136"
       originx="-75.11177"
       originy="-263.94103" />
  </sodipodi:namedview>
  <path
     inkscape:connector-curvature="0"
     style="fill:#343434;fill-opacity:1"
     d="m 17.716535,157.75077 v -7.13764 H 138.10479 258.49306 v 7.13764 7.13764 H 138.10479 17.716535 Z"
     id="path4741" />
  <path
     inkscape:connector-curvature="0"
     style="fill:#343434;fill-opacity:1;stroke:none;stroke-opacity:1"
     d="m 19.284556,145.23082 c -1.269907,-0.8032 4.336461,-17.71501 9.764481,-29.4552 4.81318,-10.41017 11.07203,-20.518578 18.35762,-29.648808 3.80132,-4.763719 12.74138,-13.749919 17.26077,-17.349849 16.55405,-13.1862 34.002428,-20.27869 56.628063,-23.01856 5.30817,-0.64278 23.1485,-0.54248 28.62181,0.16096 12.96201,1.66581 23.74972,4.539 34.16149,9.09856 31.98744,14.00807 57.31654,43.776609 71.57079,84.115047 1.00664,2.84876 1.83026,5.36824 1.83026,5.59886 0,0.23073 -0.21905,0.50339 -0.4868,0.60613 -0.77684,0.2981 -111.95182,0.20795 -112.42406,-0.0912 -0.49886,-0.31597 -0.45417,-0.40005 1.68577,-3.17221 3.43525,-4.4501 6.25975,-10.35946 7.79206,-16.30236 6.4316,-24.94422 -8.61236,-50.417877 -33.57661,-56.854637 -17.96526,-4.63217 -36.955715,1.82547 -48.442423,16.47258 -5.52363,7.043369 -8.85005,15.507417 -9.71221,24.712267 -1.04335,11.14009 2.42447,23.33489 9.09202,31.97215 2.13993,2.77216 2.18467,2.85624 1.68579,3.17221 -0.5771,0.36553 -53.230419,0.35003 -53.808821,-0.0167 z"
     id="path4739" />
  <path
     inkscape:connector-curvature="0"
     style="fill:#343434;fill-opacity:1"
     d="m 35.961657,53.058793 c -7.05333,-1.70809 -12.393427,-8.48253 -12.375774,-15.69987 0.02163,-8.92927 7.250804,-16.16973 16.144124,-16.16973 4.40976,0 7.71152,1.25955 10.89126,4.15477 3.6183,3.29463 5.27944,7.11342 5.26845,12.11206 -0.0104,4.79708 -1.66226,8.57 -5.14574,11.75374 -3.97933,3.6369 -9.60716,5.10228 -14.78232,3.84903 z"
     id="path4734" />
  <g
     aria-label="Ryadel"
     transform="scale(1.0610813,0.94243485)"
     style="font-style:normal;font-variant:normal;font-weight:100;font-stretch:normal;line-height:0%;font-family:'Friz Quadrata';-inkscape-font-specification:'Friz Quadrata Thin';letter-spacing:0px;word-spacing:0px;fill:#343434;fill-opacity:1;stroke:none;stroke-width:1px;stroke-linecap:butt;stroke-linejoin:miter;stroke-opacity:1"
     id="text4141">
    <path
       d="m 395.55377,174.72298 q -0.46567,0.15522 -5.12238,0.31044 -4.50148,0.15523 -10.86565,0.15523 -1.55223,0 -2.32835,0 -9.62387,0 -13.97013,-0.93134 -4.19103,-1.08657 -10.5552,-7.29551 -5.12238,-4.96716 -12.26267,-14.12535 -3.25969,-4.19104 -12.57311,-16.4537 -4.34626,-5.43283 -11.33132,-16.45371 -5.27761,-8.38207 -6.82984,-11.02087 2.79402,0 7.14028,-0.93135 4.34626,-1.08656 8.69253,-2.94924 7.76118,-3.41492 12.10744,-8.537303 5.43282,-6.364168 5.43282,-14.901466 0,-0.931342 -0.15522,-2.173131 -0.15522,-1.397012 -0.15522,-2.17313 -1.24179,-7.761181 -8.07163,-12.417889 -6.82984,-4.811932 -16.91938,-4.811932 -4.19103,0 -9.46864,1.241789 l -2.94924,0.776118 v 92.047604 q 0,1.70746 0,3.10447 0,4.19104 0.15522,6.51939 0.31045,2.17313 1.55224,4.65671 1.24178,2.48358 2.48357,3.72537 1.24179,1.08656 3.88059,2.6388 h -36.94322 q 2.63881,-1.24179 4.19104,-2.48358 1.70746,-1.24179 2.79403,-3.72537 1.24179,-2.6388 1.55223,-5.2776 0.46567,-2.79403 0.46567,-6.20894 0,-2.01791 0,-2.79403 V 66.997791 q 0,-5.743273 -0.77611,-8.382075 -0.6209,-2.794025 -2.17313,-5.277602 -2.17314,-3.570143 -6.5194,-5.58805 h 48.42977 q 16.14326,0 26.69846,7.605957 11.95222,8.537298 11.95222,24.214883 0,10.089534 -8.38208,20.023845 -8.38207,9.779091 -20.64474,13.038781 l -1.86268,0.46567 31.04472,39.27158 q 3.10447,3.72536 8.38208,8.38207 4.34626,3.72537 8.07163,6.05372 3.72536,2.17313 7.9164,4.50149 3.41492,1.86268 7.9164,3.41492 z"
       style="font-style:normal;font-variant:normal;font-weight:100;font-stretch:normal;font-size:167.79672241px;line-height:1.25;font-family:'Friz Quadrata';-inkscape-font-specification:'Friz Quadrata Thin';fill:#343434;fill-opacity:1"
       id="path4503" />
    <path
       d="m 479.69558,86.245519 -42.22082,99.498331 q -4.03581,9.46864 -11.33132,16.76415 -9.1582,9.00297 -20.02385,10.86566 -5.8985,0.93134 -10.71043,0.93134 -5.2776,0 -9.93431,-1.24179 -4.50148,-1.24179 -9.77909,-4.34626 l 16.29848,-11.95222 q 5.12238,4.65671 11.64177,4.65671 6.20895,0 11.1761,-4.81193 4.19104,-4.03582 6.82984,-10.39999 l 5.12238,-12.88356 q -2.48358,-2.17313 -4.81193,-5.2776 -1.24179,-1.70746 -2.17313,-3.10447 -0.93134,-1.55224 -1.55224,-2.94925 L 389.045,98.197737 q -0.77612,-1.862683 -2.17314,-3.88059 -1.39701,-2.173131 -3.41491,-3.725367 -2.01791,-1.70746 -2.63881,-2.17313 -1.55223,-1.241789 -3.72536,-2.173131 h 18.31638 q 1.86269,0 2.94925,0.310447 0.31045,0 2.79403,1.241789 2.94925,0.931342 4.81193,5.277603 l 29.02681,64.883472 21.57609,-54.94916 q 1.55223,-3.880591 1.55223,-7.761182 0,-0.776118 -0.31045,-2.638801 -0.31044,-2.017907 -3.10447,-4.346261 -2.0179,-1.70746 -2.94925,-2.017907 z"
       style="font-style:normal;font-variant:normal;font-weight:100;font-stretch:normal;font-size:167.79672241px;line-height:1.25;font-family:'Friz Quadrata';-inkscape-font-specification:'Friz Quadrata Thin';fill:#343434;fill-opacity:1"
       id="path4505" />
    <path
       d="m 567.01038,165.09911 -7.60596,13.34923 q -1.55224,0.15523 -5.58805,-0.46567 -4.03581,-0.46567 -7.76118,-1.70746 -5.2776,-2.0179 -8.69252,-6.05372 -3.88059,-4.50148 -3.88059,-10.08953 l 0.15522,-32.13129 q -4.50148,1.55224 -9.00297,3.10447 -4.50148,1.39701 -8.69252,2.32836 -12.57311,2.48357 -17.0746,7.14028 -3.41492,3.41492 -3.41492,9.77909 0,6.36417 5.8985,10.86565 5.8985,4.50149 14.74624,4.50149 5.27761,0 10.86566,-1.86269 l 3.41492,-1.24178 -11.48655,15.36713 -7.14029,0.46567 q -15.83281,0 -26.07756,-8.84774 -9.31342,-8.07163 -9.31342,-18.16116 0,-11.95222 6.36417,-17.6955 6.51939,-5.89849 21.57608,-9.46864 9.31342,-1.70746 18.62683,-3.57014 10.71043,-3.2597 10.71043,-10.71043 0,-0.77612 -0.31045,-2.6388 -0.93134,-4.50148 -5.89849,-7.14029 -4.81193,-2.794021 -12.41789,-2.794021 -9.93431,0 -21.26564,5.122381 l -4.81193,2.17313 13.19401,-19.247729 2.32835,-0.155224 q 5.74328,-0.776118 11.797,-0.776118 6.36417,0 11.79699,1.086566 5.43283,0.931341 11.02088,4.035813 5.58805,2.949249 9.00297,9.468641 3.57014,6.519391 3.57014,14.280571 l -0.15522,35.70143 q 0,1.86268 0,2.94925 0,3.41492 0.77611,5.8985 0.77612,2.48357 3.10448,3.88059 5.58805,3.41492 9.77908,3.41492 1.24179,0 1.86269,-0.15523 z"
       style="font-style:normal;font-variant:normal;font-weight:100;font-stretch:normal;font-size:167.79672241px;line-height:1.25;font-family:'Friz Quadrata';-inkscape-font-specification:'Friz Quadrata Thin';fill:#343434;fill-opacity:1"
       id="path4507" />
    <path
       d="m 678.16079,174.72298 h -26.07757 v -53.2417 q 0,-10.86565 -7.76118,-18.00594 -7.76118,-7.29551 -18.47161,-7.29551 -14.74624,0 -22.50742,9.93431 -6.82984,8.69252 -6.82984,22.3522 0,15.67759 10.86565,26.38801 9.77909,9.62387 21.88653,9.62387 8.07163,0 14.28058,-3.57014 l 2.94924,-1.70746 -11.33132,17.38504 -3.10447,0.31045 q -3.72537,0.46567 -7.29551,0.46567 -20.64474,0 -33.99397,-12.57311 -14.12535,-13.19401 -14.12535,-35.08054 0,-17.54027 11.48655,-31.044722 13.194,-15.522361 34.61486,-15.522361 8.07163,0 16.14326,3.104472 8.07162,3.104472 13.34923,8.847746 V 63.117201 q 0,-4.191037 -0.6209,-6.674615 -0.62089,-2.638802 -2.79402,-4.967156 -2.01791,-2.483577 -4.81193,-3.725366 h 18.00593 q 2.32836,0 4.81194,-1.241789 2.48357,-1.241789 3.25969,-2.173131 V 159.35584 q 0,3.88059 0.31045,6.05372 0.46567,2.17313 2.01791,4.81193 1.55223,2.48358 5.74327,4.50149 z"
       style="font-style:normal;font-variant:normal;font-weight:100;font-stretch:normal;font-size:167.79672241px;line-height:1.25;font-family:'Friz Quadrata';-inkscape-font-specification:'Friz Quadrata Thin';fill:#343434;fill-opacity:1"
       id="path4509" />
    <path
       d="m 782.1206,154.23346 -9.46864,18.00594 -3.57014,1.24179 q -5.74327,2.0179 -11.64177,2.79402 -5.8985,0.93134 -12.88356,0.93134 -22.9731,0 -38.8059,-13.50445 -15.67759,-13.50445 -15.67759,-34.61486 0,-21.11042 13.8149,-33.528304 13.8149,-12.573113 35.23576,-12.573113 17.22982,0 29.80294,11.1761 13.194,11.796997 13.194,29.026817 v 4.03581 h -70.47152 q 0,16.14326 8.84775,25.76712 10.5552,11.48655 32.44173,11.48655 12.10745,0 23.74922,-6.98506 z m -20.02384,-38.65068 q -2.48358,-9.93431 -8.69253,-14.74624 -6.20894,-4.811934 -15.52236,-4.811934 -9.62386,0 -16.4537,4.967154 -6.82984,4.96716 -9.15819,14.4358 z"
       style="font-style:normal;font-variant:normal;font-weight:100;font-stretch:normal;font-size:167.79672241px;line-height:1.25;font-family:'Friz Quadrata';-inkscape-font-specification:'Friz Quadrata Thin';fill:#343434;fill-opacity:1"
       id="path4511" />
    <path
       d="m 833.51023,174.72298 h -33.21785 q 1.55223,-0.77612 2.94925,-2.17313 0.62089,-0.6209 2.0179,-2.48358 1.55224,-1.86268 2.17313,-4.03582 0.6209,-2.17313 0.6209,-4.96715 V 62.961977 q 0,-4.191037 -0.31045,-6.05372 -0.15522,-1.862684 -1.55223,-3.880591 -1.39702,-2.17313 -2.32836,-3.104472 -1.39701,-1.552236 -2.79402,-2.17313 h 14.28057 q 2.94925,0 4.65671,-0.465671 1.86268,-0.620895 2.79402,-1.086565 0.77612,-0.310448 3.10447,-1.862684 V 160.4424 q 0,2.01791 0,4.03582 0.31045,2.17313 1.39702,4.34626 1.24179,2.01791 2.79402,3.57014 1.70746,1.55224 3.41492,2.32836 z"
       style="font-style:normal;font-variant:normal;font-weight:100;font-stretch:normal;font-size:167.79672241px;line-height:1.25;font-family:'Friz Quadrata';-inkscape-font-specification:'Friz Quadrata Thin';fill:#343434;fill-opacity:1"
       id="path4513" />
  </g>
  <flowRoot
     xml:space="preserve"
     id="flowRoot4190"
     style="font-style:normal;font-weight:normal;line-height:0.01%;font-family:Desyal;-inkscape-font-specification:Desyal;letter-spacing:0px;word-spacing:0px;fill:#000000;fill-opacity:1;stroke:none;stroke-width:1px;stroke-linecap:butt;stroke-linejoin:miter;stroke-opacity:1"
     transform="translate(-75.111773,-260.4684)"><flowRegion
       id="flowRegion4192"><rect
         id="rect4194"
         width="406"
         height="336"
         x="-1226"
         y="326.09448" /></flowRegion><flowPara
       id="flowPara4196"
       style="font-size:40px;line-height:1.25"> </flowPara></flowRoot>  <flowRoot
     xml:space="preserve"
     id="flowRoot4273"
     style="font-style:normal;font-weight:normal;line-height:0.01%;font-family:Desyal;-inkscape-font-specification:Desyal;letter-spacing:0px;word-spacing:0px;fill:#000000;fill-opacity:1;stroke:none;stroke-width:1px;stroke-linecap:butt;stroke-linejoin:miter;stroke-opacity:1"
     transform="translate(-75.111773,-260.4684)"><flowRegion
       id="flowRegion4275"><rect
         id="rect4277"
         width="1383.1008"
         height="291.328"
         x="-175.36249"
         y="-1402.6818" /></flowRegion><flowPara
       id="flowPara4279"
       style="font-size:40px;line-height:1.25"> </flowPara></flowRoot>  <flowRoot
     xml:space="preserve"
     id="flowRoot4326"
     style="font-style:normal;font-weight:normal;line-height:0.01%;font-family:Desyal;-inkscape-font-specification:Desyal;letter-spacing:0px;word-spacing:0px;fill:#000000;fill-opacity:1;stroke:none;stroke-width:1px;stroke-linecap:butt;stroke-linejoin:miter;stroke-opacity:1"
     transform="translate(-75.111773,-260.4684)"><flowRegion
       id="flowRegion4328"><rect
         id="rect4330"
         width="1640"
         height="1700"
         x="-260"
         y="-1711.9055" /></flowRegion><flowPara
       id="flowPara4332"
       style="font-size:40px;line-height:1.25"> </flowPara></flowRoot>  <flowRoot
     xml:space="preserve"
     id="flowRoot4522"
     style="font-style:normal;font-weight:normal;line-height:0.01%;font-family:Desyal;-inkscape-font-specification:Desyal;letter-spacing:0px;word-spacing:0px;fill:#000000;fill-opacity:1;stroke:none;stroke-width:1px;stroke-linecap:butt;stroke-linejoin:miter;stroke-opacity:1"
     transform="translate(-75.111773,-260.4684)"><flowRegion
       id="flowRegion4524"><rect
         id="rect4526"
         width="1268"
         height="464"
         x="664"
         y="-711.90552" /></flowRegion><flowPara
       id="flowPara4528"
       style="font-size:40px;line-height:1.25"> </flowPara></flowRoot></svg>
